<svg width="123" height="80" viewBox="0 0 123 80" fill="none" xmlns="http://www.w3.org/2000/svg">
<g clip-path="url(#clip0_775_2412)">
<path d="M18.8805 75.0752H19.3652L21.5279 79.9439H20.8221L20.1802 78.5081H18.1241L17.5195 79.9439H16.811L18.8832 75.0752H18.8805ZM19.8953 77.8905L19.1175 76.1366L18.3958 77.8905H19.8953Z" fill="#1D1D1B"/>
<path d="M24.9291 75.1021H25.6189V79.313H27.7923V79.944H24.9291V75.1021Z" fill="#1D1D1B"/>
<path d="M33.5932 77.5591H35.2125V79.6124C34.6186 79.8691 34.03 80.0028 33.444 80.0028C32.645 80.0028 32.0058 79.7675 31.529 79.2996C31.0496 78.8317 30.8126 78.2542 30.8126 77.5671C30.8126 76.8452 31.0603 76.241 31.553 75.7597C32.0484 75.2785 32.669 75.0405 33.4147 75.0405C33.6864 75.0405 33.9447 75.0673 34.1898 75.1261C34.4348 75.1849 34.7437 75.2945 35.1166 75.4496V76.1581C34.5413 75.8239 33.9687 75.6555 33.4041 75.6555C32.8767 75.6555 32.4346 75.8373 32.0697 76.1955C31.7101 76.5565 31.529 77.0003 31.529 77.5243C31.529 78.0751 31.7101 78.5243 32.0697 78.8745C32.4319 79.2221 32.898 79.3985 33.4653 79.3985C33.7396 79.3985 34.0726 79.3344 34.4561 79.2087L34.5227 79.1873V78.1794H33.5932V77.5617V77.5591Z" fill="#1D1D1B"/>
<path d="M40.6112 75.0752H41.096L43.2613 79.9439H42.5529L41.9083 78.5081H39.8522L39.2502 79.9439H38.5418L40.6139 75.0752H40.6112ZM41.626 77.8905L40.8456 76.1366L40.1238 77.8905H41.626Z" fill="#1D1D1B"/>
<path d="M46.6678 79.944V75.1021H47.877C48.3644 75.1021 48.7533 75.225 49.0383 75.4683C49.3259 75.709 49.4671 76.0378 49.4671 76.4522C49.4671 76.7356 49.3978 76.9763 49.2567 77.1848C49.1155 77.3907 48.9131 77.5457 48.6521 77.6473C48.8065 77.7489 48.9584 77.888 49.1048 78.0617C49.2513 78.2382 49.4591 78.543 49.7254 78.9815C49.8932 79.2542 50.029 79.4627 50.1303 79.6018L50.3859 79.9466H49.5656L49.3552 79.6285C49.3552 79.6285 49.3339 79.5964 49.3153 79.5697L49.1794 79.3772L48.9663 79.0243L48.7346 78.6446C48.5935 78.4467 48.4603 78.2863 48.3431 78.1714C48.2259 78.0537 48.1167 77.9682 48.0208 77.9147C47.925 77.8639 47.7652 77.8372 47.5388 77.8372H47.3576V79.944H46.6652H46.6678ZM47.5654 75.6903H47.3576V77.2196H47.6213C47.9702 77.2196 48.2099 77.1901 48.3404 77.1313C48.471 77.0725 48.5722 76.9789 48.6441 76.8586C48.716 76.7383 48.7533 76.602 48.7533 76.4442C48.7533 76.2865 48.7133 76.1528 48.6334 76.0298C48.5535 75.9068 48.439 75.8186 48.2925 75.7678C48.146 75.7197 47.9036 75.6903 47.5654 75.6903Z" fill="#1D1D1B"/>
<path d="M56.4558 75.1021H57.143L55.1028 79.9654H54.9457L52.8656 75.1021H53.5607L55.0123 78.5029L56.4532 75.1021H56.4558Z" fill="#1D1D1B"/>
<path d="M60.5415 75.1021H63.2768V75.717H61.2313V77.1955H63.2076V77.8158H61.2313V79.321H63.3407V79.936H60.5388V75.1021H60.5415Z" fill="#1D1D1B"/>
<path d="M74.7588 75.1021H75.4459L73.4084 79.9654H73.2513L71.1712 75.1021H71.8663L73.3179 78.5029L74.7588 75.1021Z" fill="#1D1D1B"/>
<path d="M78.8444 75.1021H79.5343V79.944H78.8444V75.1021Z" fill="#1D1D1B"/>
<path d="M83.5001 75.1021H84.1899V79.313H86.3606V79.944H83.4974V75.1021H83.5001Z" fill="#1D1D1B"/>
<path d="M89.7964 75.1021H90.4862V79.313H92.6595V79.944H89.7964V75.1021Z" fill="#1D1D1B"/>
<path d="M97.9011 75.0752H98.3859L100.551 79.9439H99.8427L99.2009 78.5081H97.142L96.5401 79.9439H95.829L97.9038 75.0752H97.9011ZM98.9159 77.8905L98.1381 76.1366L97.4164 77.8905H98.9159Z" fill="#1D1D1B"/>
<path d="M105.194 77.9173L104.669 77.5965C104.339 77.3933 104.104 77.1955 103.966 77.0003C103.825 76.8051 103.755 76.5779 103.755 76.3265C103.755 75.9442 103.886 75.6341 104.149 75.3988C104.413 75.1608 104.757 75.0405 105.178 75.0405C105.598 75.0405 105.95 75.1528 106.286 75.3801V76.1661C105.937 75.8319 105.564 75.6608 105.162 75.6608C104.935 75.6608 104.751 75.7143 104.605 75.8185C104.461 75.9228 104.389 76.0565 104.389 76.2169C104.389 76.364 104.442 76.5003 104.552 76.626C104.658 76.7516 104.829 76.8826 105.066 77.0243L105.593 77.3398C106.182 77.6927 106.475 78.1419 106.475 78.6873C106.475 79.075 106.344 79.3905 106.086 79.6338C105.827 79.8771 105.489 79.9974 105.076 79.9974C104.6 79.9974 104.165 79.8477 103.774 79.5563V78.6766C104.147 79.1499 104.578 79.3878 105.068 79.3878C105.284 79.3878 105.465 79.3263 105.609 79.206C105.753 79.083 105.825 78.9333 105.825 78.7515C105.825 78.4574 105.614 78.1767 105.191 77.912L105.194 77.9173Z" fill="#1D1D1B"/>
<path d="M8.81017 77.1313H0.644165V77.8425H8.81017V77.1313Z" fill="#AD8B19"/>
<path d="M122.642 77.1313H114.289V77.8425H122.642V77.1313Z" fill="#AD8B19"/>
<path d="M0.644165 68.9686V54.3867H8.67966V55.8171H2.30879V60.9103H8.46393V62.3568H2.30879V67.5329H8.88208V68.9686H0.644165Z" fill="#1D1D1B"/>
<path d="M25.4644 68.9873L20.2308 62.5947L14.9466 68.9873H12.9518L19.2187 61.421L13.4125 54.3867H15.4047L20.2388 60.2901L25.0436 54.3867H27.0092L21.1977 61.421L27.4327 68.9873H25.4644Z" fill="#1D1D1B"/>
<path d="M38.1396 69.161C36.5123 69.161 35.114 68.8321 33.99 68.1771C32.8634 67.5274 31.9578 66.613 31.3026 65.4714C30.6448 64.3271 30.3119 63.0678 30.3119 61.7364C30.3119 59.6189 31.0736 57.8142 32.5758 56.3704C34.0832 54.9266 35.9689 54.1914 38.1822 54.1914C39.6791 54.1914 41.3677 54.5844 43.2001 55.3518V57.0976C41.5355 56.2073 39.8841 55.7555 38.2888 55.7555C36.5096 55.7555 35.0101 56.3276 33.8302 57.4612C32.6477 58.5949 32.0484 60.0359 32.0484 61.7364C32.0484 63.4368 32.6397 64.8886 33.8036 65.9981C34.9648 67.105 36.4643 67.6664 38.2648 67.6664C40.0653 67.6664 41.7059 67.1665 43.3599 66.1746V67.9632C41.8524 68.76 40.0972 69.161 38.1369 69.161H38.1396Z" fill="#1D1D1B"/>
<path d="M48.6707 68.9873V54.3867H50.3353V67.5142H57.1057V68.9873H48.6707Z" fill="#1D1D1B"/>
<path d="M67.0003 69.1614C65.1119 69.1614 63.5778 68.6641 62.4459 67.6882C62.1076 67.3915 61.8173 67.0492 61.5829 66.6776C61.3485 66.3086 61.1541 65.8434 60.9996 65.3007C60.8452 64.7579 60.7679 63.8756 60.7679 62.6886V54.3896H62.4432V62.7126C62.4432 64.1885 62.611 65.1964 62.9599 65.7953C63.3061 66.3915 63.8335 66.8701 64.534 67.223C65.2265 67.5759 66.0468 67.7524 66.979 67.7524C68.308 67.7524 69.4107 67.3941 70.255 66.6936C70.7104 66.306 71.0407 65.8461 71.2431 65.3194C71.4428 64.7954 71.5387 63.9452 71.5387 62.7153V54.3923H73.214V62.7153C73.214 63.8462 73.1314 64.7071 72.9716 65.2739C72.8092 65.8381 72.6094 66.314 72.375 66.6829C72.1433 67.0519 71.853 67.3915 71.5148 67.6829C70.3748 68.6694 68.8567 69.1667 67.0029 69.1667L67.0003 69.1614Z" fill="#1D1D1B"/>
<path d="M82.1497 69.1612C80.7648 69.1612 79.4837 68.7388 78.3384 67.9073V65.9475C79.4464 67.1426 80.7195 67.7469 82.1284 67.7469C82.8582 67.7469 83.4788 67.5383 83.9689 67.1266C84.4722 66.7015 84.7279 66.1641 84.7279 65.5224C84.7279 64.5172 84.0221 63.568 82.6318 62.7018L80.9938 61.7018C80.0004 61.0949 79.2866 60.4907 78.8738 59.9132C78.4716 59.349 78.2692 58.6913 78.2692 57.9561C78.2692 56.8305 78.6447 55.9402 79.4198 55.2397C80.1921 54.5446 81.2149 54.189 82.4587 54.189C83.6146 54.189 84.696 54.5098 85.6681 55.1408V56.9134C84.656 56.0739 83.564 55.6488 82.4161 55.6488C81.665 55.6488 81.0338 55.8279 80.5411 56.1835C80.0243 56.5578 79.7607 57.0471 79.7607 57.6379C79.7607 58.1459 79.9498 58.6245 80.3173 59.0656C80.6689 59.4801 81.2309 59.9159 81.9873 60.3624L83.6306 61.3382C85.4018 62.3996 86.262 63.707 86.262 65.3273C86.262 66.4796 85.8918 67.3833 85.1274 68.0998C84.371 68.8083 83.3669 69.1666 82.1444 69.1666L82.1497 69.1612Z" fill="#1D1D1B"/>
<path d="M93.0963 54.3867H91.4317V68.9873H93.0963V54.3867Z" fill="#1D1D1B"/>
<path d="M103.734 69.0542L97.4617 54.3867H99.097L103.782 65.3646L108.435 54.3867H110.049L103.896 69.0542H103.734Z" fill="#1D1D1B"/>
<path d="M114.404 68.9686V54.3867H122.439V55.8171H116.066V60.9103H122.223V62.3568H116.066V67.5329H122.644V68.9686H114.404Z" fill="#1D1D1B"/>
<path d="M103.518 40.3955V45.585H122.644V44.8738L103.518 40.3955Z" fill="#AD8B19"/>
<path d="M0.644165 44.8738V45.585H19.7674V40.3955L0.644165 44.8738Z" fill="#AD8B19"/>
<path d="M87.2342 23.8165C86.9998 24.1561 86.792 24.509 86.6482 24.902C86.4272 25.5063 86.2034 26.2094 86.041 26.9126C85.8732 26.2495 85.6521 25.5998 85.3405 24.9635C85.0102 24.2844 84.7332 23.5973 84.3843 22.9717C84.2005 22.9904 84.0088 23.0171 83.809 23.0385C84.2192 23.7283 84.5068 24.5144 84.8824 25.2336C85.3378 26.1025 85.5855 27.0383 85.7427 27.9927L85.8439 28.0168L86.286 28.1211L86.3686 28.1425C86.4778 27.1024 86.9092 26.0517 87.1622 25.0437C87.2528 24.6801 87.4579 24.3833 87.6923 24.108C87.5724 24.0652 87.4499 23.9957 87.3247 23.8861C87.2928 23.8593 87.2661 23.8379 87.2368 23.8139L87.2342 23.8165Z" fill="#616161"/>
<path d="M92.4358 23.0624C92.0256 23.4153 91.5915 23.7388 91.1867 24.1025C91.2932 23.7094 91.3491 23.3057 91.3731 22.894C91.1973 22.8539 91.0242 22.8111 90.867 22.771H90.8591C90.8191 23.6586 90.622 24.5195 90.0547 25.2468C89.1465 26.2226 88.3182 27.276 87.8094 28.4872L88.3421 28.6129C88.9947 27.129 90.1532 25.9205 91.2985 24.7254C91.8925 24.1078 92.6222 23.6747 93.2321 23.0838C92.9685 23.0972 92.6995 23.0892 92.4358 23.0651V23.0624Z" fill="#616161"/>
<path d="M103.369 23.7418C103.364 23.7284 103.356 23.7097 103.342 23.6883C101.678 22.8568 101.188 21.889 100.005 20.496C98.2394 18.4186 98.9185 19.6993 97.1128 18.9694C96.4309 18.6913 92.0869 16.761 92.308 15.7103C92.5956 14.3414 86.4138 13.5446 85.3059 14.2424C82.7543 15.852 80.2001 12.8869 78.7912 16.4963C79.0256 15.8947 77.867 15.5097 77.867 16.7182V21.9211C77.867 22.8435 82.0325 23.0681 82.6158 23.0868C83.0633 23.1028 83.4495 23.0734 83.8037 23.0387C84.0061 23.0173 84.1952 22.9905 84.379 22.9718C85.3219 22.8622 86.0809 22.8488 87.2288 23.8167C87.2581 23.8407 87.2848 23.8621 87.3167 23.8889C87.4419 23.9985 87.5644 24.068 87.6843 24.1108C88.771 24.4958 89.7005 22.4665 90.8537 22.774H90.8617C91.0189 22.8167 91.192 22.8595 91.3678 22.8969C91.7007 22.9718 92.0603 23.0306 92.4305 23.0654C92.6942 23.0894 92.9632 23.0975 93.2268 23.0841C93.6237 23.0681 94.0125 23.0012 94.3641 22.8622C95.0566 22.5815 98.6016 23.6402 99.2355 23.9798C99.7176 24.2391 103.966 24.9369 103.364 23.7418C103.358 23.7284 103.966 24.9369 103.364 23.7418H103.369Z" fill="#AD8B19"/>
<path d="M52.9615 8.2536L52.9667 8.25098L52.9615 8.2536Z" fill="white"/>
<path d="M57.7982 27.0545L54.421 26.7363L57.7956 27.0572L57.7982 27.0545Z" fill="white"/>
<path d="M67.2533 29.5005L67.3332 29.5246L67.3758 29.5112L67.2533 29.5005Z" fill="white"/>
<path d="M62.3633 37.2944V45.5853H64.4567V37.396L62.3633 37.2944Z" fill="#AD8B19"/>
<path d="M56.9033 37.0352V45.5854H58.9222V37.1314L56.9033 37.0352Z" fill="#AD8B19"/>
<path d="M47.7465 33.7383H45.0378V45.5851H47.7465V33.7383Z" fill="#AD8B19"/>
<path d="M44.2361 33.7383H36.6561V45.5851H44.2361V33.7383Z" fill="#646363"/>
<path d="M52.3649 33.7383V45.5851H53.7658V33.7436L53.7791 33.7383H52.3649Z" fill="#AD8B19"/>
<path d="M51.5632 33.7383H48.5508V45.5851H51.5632V33.7383Z" fill="#AD8B19"/>
<path d="M71.5148 28.3562V12.7556L64.5233 11.0552V27.6931L71.5148 28.3562Z" fill="#AD8B19"/>
<path d="M47.1179 0L20.8195 23.5011V25.5117L47.1179 3.25112V0Z" fill="white"/>
<path d="M75.9786 27.5194V10.3013L71.5147 12.7557V28.3562L72.8731 28.4872L69.123 29.6502L68.4279 29.5968V33.035L79.3558 30.1689V26.4686L75.9786 27.5194Z" fill="white"/>
<path d="M26.5112 33.4575H24.4763V45.5851H26.5112V33.4575Z" fill="#646363"/>
<path d="M73.8186 37.8453H73.8026L68.4279 37.5859V45.5854H73.8026H73.8186V37.8453Z" fill="#AD8B19"/>
<path d="M73.8186 37.845V45.5852H103.518V35.1768L73.8186 37.845Z" fill="#1D1D1B"/>
<path d="M52.9668 8.25098L52.9615 8.25365L30.9564 24.7606V29.5731L33.1963 28.2657V25.0654L52.9668 11.6679L54.405 11.9753V26.7337L54.421 26.7364L64.5233 27.6935V11.0556L52.9668 8.25098Z" fill="#1D1D1B"/>
<path d="M47.1179 0V3.25112L20.8195 25.5117L30.9564 26.5838V24.7604L52.9668 8.25078L71.5147 12.7558L75.9786 10.3014V27.5195L77.8696 26.9314V8.62242L47.1179 0Z" fill="#646363"/>
<path d="M64.5233 11.0552L71.5148 12.7556L64.5233 11.0552Z" fill="#4D4D4D"/>
<path d="M30.9564 24.7603L43.5543 15.3091L30.9564 24.7603Z" fill="#4D4D4D"/>
<path d="M64.5233 11.0556L52.9668 8.25098L64.5233 11.0556Z" fill="#4D4D4D"/>
<path d="M39.442 23.7549C39.8016 23.7549 40.0919 23.3539 40.0919 22.8566C40.0919 22.3593 39.8016 21.9609 39.442 21.9609C39.0825 21.9609 38.7921 22.362 38.7921 22.8566C38.7921 23.3512 39.0825 23.7549 39.442 23.7549Z" fill="#1D1D1B"/>
<path d="M39.442 26.4075C39.8016 26.4075 40.0919 26.0065 40.0919 25.5119C40.0919 25.0173 39.8016 24.6162 39.442 24.6162C39.0825 24.6162 38.7921 25.0173 38.7921 25.5119C38.7921 26.0065 39.0825 26.4075 39.442 26.4075Z" fill="#1D1D1B"/>
<path d="M41.8471 22.5013C42.2279 22.5013 42.5369 22.0762 42.5369 21.5548C42.5369 21.0335 42.2279 20.603 41.8471 20.603C41.4662 20.603 41.1599 21.0281 41.1599 21.5548C41.1599 22.0815 41.4689 22.5013 41.8471 22.5013Z" fill="#1D1D1B"/>
<path d="M41.8471 25.5384C42.2279 25.5384 42.5369 25.1133 42.5369 24.5866C42.5369 24.0599 42.2279 23.6401 41.8471 23.6401C41.4662 23.6401 41.1599 24.0652 41.1599 24.5866C41.1599 25.108 41.4689 25.5384 41.8471 25.5384Z" fill="#1D1D1B"/>
<path d="M44.1909 21.1832C44.593 21.1832 44.918 20.7367 44.918 20.1833C44.918 19.6298 44.593 19.1807 44.1909 19.1807C43.7887 19.1807 43.4637 19.6298 43.4637 20.1833C43.4637 20.7367 43.7887 21.1832 44.1909 21.1832Z" fill="#1D1D1B"/>
<path d="M44.1909 24.5572C44.593 24.5572 44.918 24.1107 44.918 23.5573C44.918 23.0039 44.593 22.5547 44.1909 22.5547C43.7887 22.5547 43.4637 23.0039 43.4637 23.5573C43.4637 24.1107 43.7887 24.5572 44.1909 24.5572Z" fill="#1D1D1B"/>
<path d="M19.7674 36.2434V45.5851H24.4763V33.4575L19.7674 36.2434Z" fill="white"/>
<path d="M67.8099 29.5382L52.9668 28.3457V11.665L33.1963 25.0652V28.2655L26.5138 32.2198V45.5879H35.399V26.9635L42.963 27.3752V28.6345L41.4795 28.5543V33.7384H44.2361V32.8241H45.0378V33.7384H47.7465V31.3643H48.5509V33.7384H51.5632V29.8029H52.3649V33.7384H53.7765L53.7658 33.7438V45.5879H56.2827V32.8989H56.9006V36.0645L58.9195 35.5324V45.5879H61.7427V31.2119H62.3606V34.6261L64.4567 34.078V45.5852H67.8099V29.5382ZM39.442 26.4047C39.0824 26.4047 38.7921 26.0037 38.7921 25.509C38.7921 25.0144 39.0824 24.6134 39.442 24.6134C39.8016 24.6134 40.0919 25.0144 40.0919 25.509C40.0919 26.0037 39.8016 26.4047 39.442 26.4047ZM39.442 23.7551C39.0824 23.7551 38.7921 23.3541 38.7921 22.8568C38.7921 22.3595 39.0824 21.9611 39.442 21.9611C39.8016 21.9611 40.0919 22.3622 40.0919 22.8568C40.0919 23.3514 39.8016 23.7551 39.442 23.7551ZM41.8471 25.5384C41.4662 25.5384 41.1599 25.1133 41.1599 24.5866C41.1599 24.0599 41.4689 23.6402 41.8471 23.6402C42.2253 23.6402 42.5369 24.0653 42.5369 24.5866C42.5369 25.108 42.2279 25.5384 41.8471 25.5384ZM41.8471 22.5039C41.4662 22.5039 41.1599 22.0788 41.1599 21.5574C41.1599 21.0361 41.4689 20.6056 41.8471 20.6056C42.2253 20.6056 42.5369 21.0307 42.5369 21.5574C42.5369 22.0841 42.2279 22.5039 41.8471 22.5039ZM44.1935 19.1806C44.5957 19.1806 44.9206 19.6297 44.9206 20.1832C44.9206 20.7366 44.5957 21.1831 44.1935 21.1831C43.7913 21.1831 43.4664 20.7366 43.4664 20.1832C43.4664 19.6297 43.7913 19.1806 44.1935 19.1806ZM44.1935 22.5547C44.5957 22.5547 44.9206 23.0039 44.9206 23.5573C44.9206 24.1107 44.5957 24.5572 44.1935 24.5572C43.7913 24.5572 43.4664 24.1107 43.4664 23.5573C43.4664 23.0039 43.7913 22.5547 44.1935 22.5547Z" fill="white"/>
<path d="M42.963 27.3727L35.399 26.9609V45.5854H36.6561V33.7386H41.4795V28.5544L42.963 28.6319V27.3727Z" fill="#1D1D1B"/>
<path d="M56.9033 36.0616V32.896H56.2854V45.585H56.9033V37.0348L58.9222 37.131V35.5295L56.9033 36.0616Z" fill="#646363"/>
<path d="M62.3633 34.6261V31.2119H61.7454V45.5853H62.3633V37.2944L64.4567 37.396V34.078L62.3633 34.6261Z" fill="#646363"/>
<path d="M79.3558 26.4686V30.1689L68.4279 33.035V29.5968L69.123 29.6502L72.8731 28.4872L54.421 26.736L54.405 26.7333V11.9749L52.9668 11.6675V28.3482L67.81 29.5379V45.585H68.4279V37.5855L73.8026 37.8449H73.8186L103.518 35.1766V32.2303L79.3558 26.4686Z" fill="#646363"/>
<path d="M45.0378 32.8242H44.2361V45.5854H45.0378V32.8242Z" fill="#1D1D1B"/>
<path d="M48.5535 31.3643H47.7492V45.5852H48.5535V31.3643Z" fill="#1D1D1B"/>
<path d="M52.3649 29.8027H51.5632V45.5878H52.3649V29.8027Z" fill="#1D1D1B"/>
</g>
<defs>
<clipPath id="clip0_775_2412">
<rect width="122" height="80" fill="white" transform="translate(0.644165)"/>
</clipPath>
</defs>
</svg>
