<svg width="1319" height="92" viewBox="0 0 1319 92" fill="none" xmlns="http://www.w3.org/2000/svg">
<path d="M6.73598 6.008V43.512H42.576V48.376H6.73598V86.136H46.416V91H0.975981V1.144H46.416V6.008H6.73598ZM182.123 46.072L209.131 91H202.603L178.411 50.68L155.243 91H148.843L175.467 45.688L148.715 1.144H155.243L179.179 41.08L202.731 1.144H209.259L182.123 46.072ZM311.527 46.2C311.527 37.3253 313.362 29.432 317.031 22.52C320.786 15.5227 325.906 10.0613 332.391 6.13599C338.962 2.21066 346.3 0.247993 354.407 0.247993C364.647 0.247993 373.266 2.63733 380.263 7.41599C387.26 12.1947 392.38 18.8933 395.623 27.512H388.967C386.407 20.6853 382.14 15.3093 376.167 11.384C370.279 7.37333 363.026 5.368 354.407 5.368C347.495 5.368 341.223 7.032 335.591 10.36C329.959 13.6027 325.522 18.3387 322.279 24.568C319.036 30.712 317.415 37.9227 317.415 46.2C317.415 54.392 319.036 61.56 322.279 67.704C325.522 73.7627 329.959 78.456 335.591 81.784C341.223 85.112 347.495 86.776 354.407 86.776C363.026 86.776 370.279 84.8133 376.167 80.888C382.14 76.8773 386.407 71.4587 388.967 64.632H395.623C392.38 73.2507 387.26 79.9493 380.263 84.728C373.266 89.5067 364.647 91.896 354.407 91.896C346.3 91.896 338.962 89.976 332.391 86.136C325.906 82.2107 320.786 76.792 317.031 69.88C313.362 62.8827 311.527 54.9893 311.527 46.2ZM510.251 86.136H543.659V91H504.491V1.144H510.251V86.136ZM652.869 1.144V57.336C652.869 67.4907 655.173 74.9573 659.781 79.736C664.389 84.4293 670.661 86.776 678.597 86.776C686.448 86.776 692.634 84.4293 697.157 79.736C701.68 75.0427 703.941 67.576 703.941 57.336V1.144H709.701V57.208C709.701 68.8987 706.885 77.6027 701.253 83.32C695.621 89.0373 688.069 91.896 678.597 91.896C669.125 91.896 661.488 89.0373 655.685 83.32C649.968 77.5173 647.109 68.8133 647.109 57.208V1.144H652.869ZM846.985 91.896C841.182 91.896 836.105 90.872 831.753 88.824C827.401 86.776 823.988 84.0027 821.513 80.504C819.124 77.0053 817.758 73.1227 817.417 68.856H823.433C824.116 73.5493 826.292 77.7307 829.961 81.4C833.716 85.0693 839.39 86.904 846.985 86.904C851.422 86.904 855.262 86.0933 858.505 84.472C861.833 82.8507 864.393 80.632 866.185 77.816C867.977 75 868.873 71.8853 868.873 68.472C868.873 64.12 867.806 60.664 865.673 58.104C863.625 55.544 861.022 53.624 857.865 52.344C854.793 51.064 850.612 49.6987 845.321 48.248C839.518 46.712 834.825 45.176 831.241 43.64C827.742 42.104 824.756 39.7573 822.281 36.6C819.892 33.3573 818.697 28.9627 818.697 23.416C818.697 19.1493 819.806 15.2667 822.025 11.768C824.329 8.184 827.572 5.368 831.753 3.31999C835.934 1.27199 840.756 0.247993 846.217 0.247993C854.153 0.247993 860.553 2.21066 865.417 6.13599C870.281 10.0613 873.182 14.8827 874.121 20.6H867.977C867.465 18.296 866.313 15.9493 864.521 13.56C862.814 11.1707 860.34 9.208 857.097 7.672C853.94 6.05066 850.142 5.24 845.705 5.24C839.732 5.24 834.697 6.904 830.601 10.232C826.505 13.4747 824.457 17.8267 824.457 23.288C824.457 27.64 825.524 31.1387 827.657 33.784C829.79 36.344 832.393 38.3067 835.465 39.672C838.622 40.952 842.846 42.2747 848.137 43.64C854.025 45.2613 858.676 46.84 862.089 48.376C865.588 49.8267 868.532 52.1733 870.921 55.416C873.396 58.5733 874.633 62.8827 874.633 68.344C874.633 72.3547 873.566 76.152 871.433 79.736C869.3 83.32 866.142 86.264 861.961 88.568C857.865 90.7867 852.873 91.896 846.985 91.896ZM988.516 1.144V91H982.756V1.144H988.516ZM1168.35 1.144L1134.05 91H1127.65L1093.47 1.144H1099.74L1130.85 84.216L1162.21 1.144H1168.35ZM1278.9 6.008V43.512H1314.74V48.376H1278.9V86.136H1318.58V91H1273.14V1.144H1318.58V6.008H1278.9Z" fill="white"/>
</svg>
